<?xml version="1.0" encoding="UTF-8"?>
<!DOCTYPE svg PUBLIC "-//W3C//DTD SVG 1.1//EN" "http://www.w3.org/Graphics/SVG/1.1/DTD/svg11.dtd">
<!-- Creator: CorelDRAW -->
<svg xmlns="http://www.w3.org/2000/svg" xml:space="preserve" width="1.70666in" height="1.70666in" version="1.1" style="shape-rendering:geometricPrecision; text-rendering:geometricPrecision; image-rendering:optimizeQuality; fill-rule:evenodd; clip-rule:evenodd"
viewBox="0 0 1707 1707"
 xmlns:xlink="http://www.w3.org/1999/xlink">
 <defs>
  <style type="text/css">
   <![CDATA[
    .fil0 {fill:#333333}
    .fil2 {fill:#999999}
    .fil1 {fill:#CCCCCC}
   ]]>
  </style>
 </defs>
 <g id="Layer_x0020_1">
  <metadata id="CorelCorpID_0Corel-Layer"/>
  <path class="fil0" d="M853 1270c-28,0 -22,-32 -22,-53 -21,0 -53,5 -53,-23 0,-12 10,-22 23,-22l82 0 0 -60 -82 0c-13,0 -23,-11 -23,-23 0,-135 -12,-128 53,-128 0,-21 -6,-54 22,-54 28,0 23,33 23,54 20,0 53,-5 53,22 0,13 -10,23 -23,23l-83 0 0 60 83 0c13,0 23,10 23,23 0,135 11,128 -53,128 0,21 5,53 -23,53zm5 437c-254,0 -584,-89 -677,-339 -60,-162 -33,-439 426,-852 -78,0 -65,13 -65,-129 0,-12 10,-22 23,-22l68 0 -216 -230c-13,-15 -3,-39 17,-39l129 0 187 -94c5,-2 11,-3 17,-1l169 58 179 -45c8,-2 16,0 21,5l146 137c9,9 9,24 0,33l-173 176c60,0 49,-5 49,129 0,29 -37,22 -65,22 464,418 493,696 433,857 -92,246 -417,334 -668,334zm-183 -1191c-476,415 -508,683 -451,836 151,406 1106,416 1259,5 57,-152 23,-421 -458,-841l-350 0zm12 -104c-3,0 -6,-1 -9,-2l-90 0 0 61 524 0 0 -61 -416 0c-3,1 -6,2 -9,2zm358 -47l189 -192 -120 -112 -174 44c-4,1 -8,1 -13,-1l-165 -57 -183 92c-10,5 -77,3 -93,3l209 223 350 0zm-192 1116c-216,0 -391,-176 -391,-392 0,-216 175,-392 391,-392 216,0 392,176 392,392 0,216 -176,392 -392,392zm0 -738c-191,0 -346,155 -346,346 0,191 155,346 346,346 191,0 347,-155 347,-346 0,-191 -156,-346 -347,-346zm0 627c-155,0 -281,-126 -281,-281 0,-155 126,-281 281,-281 155,0 282,126 282,281 0,155 -127,281 -282,281zm0 -517c-130,0 -236,106 -236,236 0,130 106,236 236,236 130,0 236,-106 236,-236 0,-130 -106,-236 -236,-236z"/>
  <path class="fil1" d="M462 1089c0,-216 175,-392 391,-392 216,0 392,176 392,392 0,216 -176,392 -392,392 -216,0 -391,-176 -391,-392zm213 -573c-476,415 -508,683 -451,836 151,406 1106,416 1259,5 57,-152 23,-421 -458,-841l-350 0z"/>
  <path class="fil1" d="M695 365l350 0 189 -192 -120 -112 -174 44c-4,1 -8,1 -13,-1l-165 -57 -183 92c-10,5 -77,3 -93,3l209 223z"/>
  <path class="fil1" d="M1112 410l-416 0c-3,1 -6,2 -9,2 -3,0 -6,-1 -9,-2l-90 0 0 61 524 0 0 -61z"/>
  <path class="fil2" d="M853 743c-191,0 -346,155 -346,346 0,191 155,346 346,346 191,0 347,-155 347,-346 0,-191 -156,-346 -347,-346zm-281 346c0,-155 126,-281 281,-281 155,0 282,126 282,281 0,155 -127,281 -282,281 -155,0 -281,-126 -281,-281z"/>
  <path class="fil2" d="M853 853c-130,0 -236,106 -236,236 0,130 106,236 236,236 130,0 236,-106 236,-236 0,-130 -106,-236 -236,-236zm-75 341c0,-12 10,-22 23,-22l82 0 0 -60 -82 0c-13,0 -23,-11 -23,-23 0,-135 -12,-128 53,-128 0,-21 -6,-54 22,-54 28,0 23,33 23,54 20,0 53,-5 53,22 0,13 -10,23 -23,23l-83 0 0 60 83 0c13,0 23,10 23,23 0,135 11,128 -53,128 0,21 5,53 -23,53 -28,0 -22,-32 -22,-53 -21,0 -53,5 -53,-23z"/>
 </g>
</svg>
