<svg width="37" height="37" viewBox="0 0 37 37" fill="none" xmlns="http://www.w3.org/2000/svg">
<path opacity="0.4" d="M24.9596 3.08334H12.0404C6.42874 3.08334 3.08333 6.42876 3.08333 12.0404V24.9442C3.08333 30.5713 6.42874 33.9167 12.0404 33.9167H24.9442C30.5558 33.9167 33.9012 30.5713 33.9012 24.9596V12.0404C33.9167 6.42876 30.5712 3.08334 24.9596 3.08334Z" fill="#292D32"/>
<path d="M26.2083 12.7187H10.7917C10.1596 12.7187 9.63541 12.1946 9.63541 11.5625C9.63541 10.9304 10.1596 10.4062 10.7917 10.4062H26.2083C26.8404 10.4062 27.3646 10.9304 27.3646 11.5625C27.3646 12.1946 26.8404 12.7187 26.2083 12.7187Z" fill="#292D32"/>
<path d="M26.2083 19.6562H10.7917C10.1596 19.6562 9.63541 19.1321 9.63541 18.5C9.63541 17.8679 10.1596 17.3438 10.7917 17.3438H26.2083C26.8404 17.3438 27.3646 17.8679 27.3646 18.5C27.3646 19.1321 26.8404 19.6562 26.2083 19.6562Z" fill="#292D32"/>
<path d="M26.2083 26.5937H10.7917C10.1596 26.5937 9.63541 26.0696 9.63541 25.4375C9.63541 24.8054 10.1596 24.2812 10.7917 24.2812H26.2083C26.8404 24.2812 27.3646 24.8054 27.3646 25.4375C27.3646 26.0696 26.8404 26.5937 26.2083 26.5937Z" fill="#292D32"/>
</svg>
