<svg width="800" height="800" viewBox="0 0 800 800" fill="none" xmlns="http://www.w3.org/2000/svg">
<g filter="url(#filter0_d_47_2)">
<path d="M584.125 246.563C626.063 237.25 680.687 195.625 689 175.125C693.875 163.125 669.562 144.375 663.062 136.813C648.187 119.563 654.187 111.063 659.937 90.5C666.5 67.125 650.938 41.3125 628.875 31.1875C606.813 21.0625 580.438 24.25 558.25 34.125C536.063 44 517.125 59.875 498.562 75.5C485 66.9375 463.375 29.125 428.375 53.6875C404.188 70.625 402 107.5 405.125 136.938C412.438 204.875 429.188 240.125 460.75 249.625C500.625 261.625 544.75 255.313 584.125 246.563Z" fill="#FFCA28"/>
<path d="M652.25 51.125C646.937 142.687 557.625 203.438 515.25 230.188L542.75 253.813C542.75 253.813 560.187 254.188 584.062 246.563C625 233.563 684.813 196.813 688.938 175.125C695 143.562 662.625 150.437 655.312 125.5C651.5 112.312 673.875 87.375 652.25 51.125ZM498.625 75.5625C498.625 75.5625 482.687 59.25 470.875 51.8125C465 62.875 460.812 74.875 458.75 87.25C455.062 109 458.75 139.875 467.437 162.875C468.812 166.437 473.937 165.875 474.5 162.125C482 112.688 498.625 75.5625 498.625 75.5625Z" fill="#E2A610"/>
<path d="M387.25 238.5C387.25 238.5 192.313 259.563 104.375 428.813C16.4375 598.063 91.1875 700.688 170.312 738.063C249.437 775.438 448.813 788.625 578.5 757.875C708.188 727.125 740.625 663.375 734.563 601.813C725.75 511.938 642.25 456.688 642.25 456.688C642.25 456.688 645.563 345.688 559.438 273.625C483 209.625 387.25 238.5 387.25 238.5Z" fill="#FFCA28"/>
<path d="M467.25 523.313C425.438 470.563 376.062 463.5 360.25 444.563C351.625 434.25 346.562 423.813 348.5 410.875C350.562 397.125 366.5 387.625 378.875 385.313C393.312 382.563 427.75 384 456.687 411.563C463.562 418.063 461.062 428.188 460.875 437.25C460.375 456.688 488.187 475.563 510.687 459.313C533.25 443 515.938 406.688 501.375 389.063C490.375 375.75 450.5 346.438 400.938 341.813C387 340.5 330.937 332.188 298.562 393.75C289.25 411.438 285.812 454.188 334.562 490.313C344.75 497.875 397.625 524.75 412.313 542.188C437.75 572.375 420.312 598.938 400.437 602.438C346.25 611.938 315.563 582.625 309.875 566.563C305.813 555.125 310.062 542.75 304.812 532C299.437 520.938 288.437 516.563 276.812 520.25C238.687 532.375 250.813 574.063 267.688 597C285.75 621.563 307.937 636.375 332.875 644.5C425.937 674.813 470.687 626.938 478.5 591.875C484.25 566.188 483.625 543.938 467.25 523.313Z" fill="#6B4B46"/>
<path d="M444.75 306.188C365.563 475.313 351.938 688.875 351.938 688.875" stroke="#6B4B46" stroke-width="31.25" stroke-miterlimit="10"/>
<path d="M510.437 199.75C563.187 216.938 574.875 264.625 571.063 277.625C566.5 292.875 508.062 233.5 421.187 237.063C390.812 238.313 399.625 219.688 413.687 208.938C432.25 194.75 463.437 184.5 510.437 199.75Z" fill="#6D4C41"/>
<path d="M510.437 199.75C563.187 216.938 574.875 264.625 571.063 277.625C566.5 292.875 508.062 233.5 421.187 237.063C390.812 238.313 399.625 219.688 413.687 208.938C432.25 194.75 463.437 184.5 510.437 199.75Z" fill="#6B4B46"/>
<path d="M603.063 367.875C609.688 363.313 631.938 371.188 638.188 414.75C641.25 436.063 642.188 456.688 642.188 456.688C642.188 456.688 615.938 433.125 607.25 416.563C596.313 395.625 592.063 375.375 603.063 367.875Z" fill="#E2A610"/>
</g>
<defs>
<filter id="filter0_d_47_2" x="-4" y="0" width="808" height="808" filterUnits="userSpaceOnUse" color-interpolation-filters="sRGB">
<feFlood flood-opacity="0" result="BackgroundImageFix"/>
<feColorMatrix in="SourceAlpha" type="matrix" values="0 0 0 0 0 0 0 0 0 0 0 0 0 0 0 0 0 0 127 0" result="hardAlpha"/>
<feOffset dy="4"/>
<feGaussianBlur stdDeviation="2"/>
<feComposite in2="hardAlpha" operator="out"/>
<feColorMatrix type="matrix" values="0 0 0 0 0 0 0 0 0 0 0 0 0 0 0 0 0 0 0.25 0"/>
<feBlend mode="normal" in2="BackgroundImageFix" result="effect1_dropShadow_47_2"/>
<feBlend mode="normal" in="SourceGraphic" in2="effect1_dropShadow_47_2" result="shape"/>
</filter>
</defs>
</svg>
