<svg width="35" height="35" viewBox="0 0 35 35" fill="none" xmlns="http://www.w3.org/2000/svg">
<path fill-rule="evenodd" clip-rule="evenodd" d="M32.0833 17.5C32.0833 25.5541 25.5541 32.0834 17.5 32.0834C9.44585 32.0834 2.91667 25.5541 2.91667 17.5C2.91667 9.44586 9.44585 2.91669 17.5 2.91669C25.5541 2.91669 32.0833 9.44586 32.0833 17.5ZM17.5 11.3021C16.5939 11.3021 15.8594 12.0366 15.8594 12.9427C15.8594 13.5468 15.3697 14.0365 14.7656 14.0365C14.1616 14.0365 13.6719 13.5468 13.6719 12.9427C13.6719 10.8285 15.3859 9.1146 17.5 9.1146C19.6142 9.1146 21.3281 10.8285 21.3281 12.9427C21.3281 13.9794 20.9147 14.9217 20.246 15.61C20.1114 15.7484 19.9831 15.8767 19.8606 15.9991C19.5459 16.3135 19.2701 16.589 19.0282 16.8999C18.7088 17.3103 18.5938 17.612 18.5938 17.8646V18.9584C18.5938 19.5624 18.104 20.0521 17.5 20.0521C16.896 20.0521 16.4063 19.5624 16.4063 18.9584V17.8646C16.4063 16.9091 16.851 16.1356 17.302 15.5564C17.6355 15.1277 18.0548 14.7092 18.3951 14.3696C18.4978 14.2672 18.5932 14.1719 18.6769 14.0857C18.965 13.7892 19.1406 13.3876 19.1406 12.9427C19.1406 12.0366 18.4061 11.3021 17.5 11.3021ZM17.5 24.7917C18.3054 24.7917 18.9583 24.1388 18.9583 23.3334C18.9583 22.5279 18.3054 21.875 17.5 21.875C16.6946 21.875 16.0417 22.5279 16.0417 23.3334C16.0417 24.1388 16.6946 24.7917 17.5 24.7917Z" fill="#1C274C"/>
</svg>
